<?xml version="1.0" encoding="utf-8"?>
<!-- Generator: Adobe Illustrator 21.0.0, SVG Export Plug-In . SVG Version: 6.00 Build 0)  -->
<svg version="1.1" id="Layer_1" xmlns="http://www.w3.org/2000/svg" xmlns:xlink="http://www.w3.org/1999/xlink" x="0px" y="0px"
	 viewBox="0 0 683 243" style="enable-background:new 0 0 683 243;" xml:space="preserve">
<style type="text/css">
	.st0{fill:none;stroke:#000000;stroke-miterlimit:10;}
	.st1{fill:#FFFFFF;stroke:#000000;stroke-width:1.2;stroke-miterlimit:10;}
	.st2{stroke:#000000;stroke-width:1.2;stroke-miterlimit:10;}
	.st3{fill:none;stroke:#4675B8;stroke-width:5;stroke-miterlimit:10;}
	.st4{fill:#4675B8;}
	.st5{fill:none;stroke:#CC2229;stroke-width:5;stroke-miterlimit:10;}
	.st6{fill:#CC2229;}
	.st7{font-family:'GillSans';}
	.st8{font-size:14px;}
</style>
<path class="st0" d="M127.1,140.9c30.5-10.6,295.7-112.8,309.9-117s29.8-7.8,41.1-10.6c11.3-2.8,18.4-4,29.8-2.1
	c8.2,1.3,10.6,3.5,10.6,3.5s23.1,1.3,26.7,7.6c2.3,4-9.1,16.8-24,26c-14.9,9.2-61.2,28.3-125.4,48.6c-9.7,3.1-94.3,38.3-109.9,44
	c-15.6,5.7-75.3,25.5-99.3,30.5c-25.7,5.4-64.2,16.2-103.5,14.9c-9.5-0.3-52.2,4.8-45.3-3.3C46.9,172.3,109.8,147,127.1,140.9z"/>
<path class="st0" d="M51,183c0,0,51.3-17,54-18s5.7-0.3,4-4.3s-8.6-3.3-15.9-0.7c-7.3,2.7-35.4,13.7-38.7,18.3C51,183,51,183,51,183
	z"/>
<path class="st0" d="M249.3,137.3c0,0,97.3-31,100-32c2.7-1,5-3,3.3-7c-1.7-4-10.1-5.8-17.7-4c-11.5,2.7-22.3,7-40.3,15.7
	C289.5,112.5,249.3,137.3,249.3,137.3z"/>
<path class="st0" d="M64.3,167.2L7,84.7l19.3-7c0,0,69.3,43.7,85.7,47.3c16.3,3.7,58.6-0.2,58.6-0.2L64.3,167.2z"/>
<path class="st1" d="M411.5,81.3c2.4,4,12.8,26.8,11.6,29.2c-1.2,2.4,11.2,0.4-21.2,11.2s-36.8,9.2-36.8,9.2l-0.8-4.4l1.6-4
	l-4.2-0.8l4.2-4l-5.6-1.2l2-3.6l-5.2-2l2.6-4.8c21.4-17.2,31-26.4,41.4-25.6C411.5,81.3,411.5,81.3,411.5,81.3z"/>
<circle class="st2" cx="296" cy="116" r="6"/>
<g>
	<g>
		<path class="st3" d="M108.2,232.5c-20.1-32.3-32.1-70.2-33.1-110.8"/>
		<g>
			<polygon class="st4" points="83.8,131.5 75.1,123.2 66.8,131.8 66.7,124.6 75,116 83.6,124.3 			"/>
		</g>
	</g>
</g>
<g>
	<g>
		<path class="st5" d="M389.5,59.9C399.3,76.3,405,95.5,405,116c0,14.4-2.8,28.1-7.8,40.7"/>
		<g>
			<polygon class="st6" points="387.5,72.8 390.2,61.2 401.9,63.9 398.1,57.8 386.4,55.1 383.7,66.7 			"/>
		</g>
	</g>
</g>
<g>
	<g>
		<line class="st0" x1="674" y1="78" x2="523.1" y2="78"/>
		<g>
			<polygon points="526.4,73.9 527.1,74.6 523.5,78 527.1,81.4 526.4,82.1 522,78 			"/>
		</g>
	</g>
</g>
<g>
	<g>
		<line class="st0" x1="674" y1="94" x2="523.1" y2="94"/>
		<g>
			<polygon points="526.4,89.9 527.1,90.6 523.5,94 527.1,97.4 526.4,98.1 522,94 			"/>
		</g>
	</g>
</g>
<g>
	<g>
		<line class="st0" x1="674" y1="109" x2="523.1" y2="109"/>
		<g>
			<polygon points="526.4,104.9 527.1,105.6 523.5,109 527.1,112.4 526.4,113.1 522,109 			"/>
		</g>
	</g>
</g>
<g>
	<g>
		<line class="st0" x1="674" y1="124" x2="523.1" y2="124"/>
		<g>
			<polygon points="526.4,119.9 527.1,120.6 523.5,124 527.1,127.4 526.4,128.1 522,124 			"/>
		</g>
	</g>
</g>
<g>
	<g>
		<line class="st0" x1="674" y1="139" x2="523.1" y2="139"/>
		<g>
			<polygon points="526.4,134.9 527.1,135.6 523.5,139 527.1,142.4 526.4,143.1 522,139 			"/>
		</g>
	</g>
</g>
<g>
	<g>
		<line class="st0" x1="674" y1="154" x2="523.1" y2="154"/>
		<g>
			<polygon points="526.4,149.9 527.1,150.6 523.5,154 527.1,157.4 526.4,158.1 522,154 			"/>
		</g>
	</g>
</g>
<g>
	<g>
		<line class="st0" x1="674" y1="169" x2="523.1" y2="169"/>
		<g>
			<polygon points="526.4,164.9 527.1,165.6 523.5,169 527.1,172.4 526.4,173.1 522,169 			"/>
		</g>
	</g>
</g>
<g>
	<g>
		<line class="st0" x1="674" y1="184" x2="523.1" y2="184"/>
		<g>
			<polygon points="526.4,179.9 527.1,180.6 523.5,184 527.1,187.4 526.4,188.1 522,184 			"/>
		</g>
	</g>
</g>
<text transform="matrix(1 0 0 1 282 102)" class="st7 st8">CG</text>
<text transform="matrix(1 0 0 1 117 212)"><tspan x="0" y="0" class="st7 st8">stabilizing</tspan><tspan x="0" y="16.8" class="st7 st8">force</tspan></text>
<text transform="matrix(1 0 0 1 365 175)"><tspan x="0" y="0" class="st7 st8">destabilizing</tspan><tspan x="0" y="16.8" class="st7 st8">force</tspan></text>
<text transform="matrix(1 0 0 1 583 201)" class="st7 st8">airflow</text>
</svg>
